<svg xmlns="http://www.w3.org/2000/svg" xmlns:xlink="http://www.w3.org/1999/xlink" width="294" height="300" version="1.1" viewBox="0 0 294 300"><title>Spiro</title><desc>Created with Sketch.</desc><g id="Page-1" fill="none" fill-rule="evenodd" stroke="none" stroke-width="1"><g id="Spiro" stroke="#7B61C1" stroke-width="9" transform="translate(4.000000, 5.000000)"><polyline id="spiro" points="218 145 218 145.3 218 145.7 218 146 218 146.3 218.1 146.7 218.1 147 218.1 147.3 218.2 147.7 218.2 148 218.3 148.3 218.4 148.7 218.4 149 218.5 149.4 218.6 149.7 218.7 150.1 218.7 150.5 218.8 150.8 218.9 151.2 219 151.6 219.1 151.9 219.3 152.3 219.4 152.7 219.5 153.1 219.6 153.5 219.7 153.9 219.9 154.3 220 154.8 220.1 155.2 220.3 155.6 220.4 156 220.6 156.5 220.7 156.9 220.9 157.4 221 157.9 221.2 158.4 221.4 158.8 221.5 159.3 221.7 159.8 221.9 160.3 222 160.9 222.2 161.4 222.3 161.9 222.5 162.5 222.7 163 222.8 163.6 223 164.2 223.2 164.7 223.3 165.3 223.5 165.9 223.7 166.5 223.8 167.2 224 167.8 224.1 168.4 224.3 169.1 224.4 169.7 224.6 170.4 224.7 171.1 224.8 171.8 225 172.5 225.1 173.2 225.2 173.9 225.3 174.7 225.5 175.4 225.6 176.2 225.7 176.9 225.8 177.7 225.8 178.5 225.9 179.3 226 180.1 226.1 180.9 226.1 181.7 226.2 182.5 226.2 183.4 226.2 184.2 226.3 185.1 226.3 186 226.3 186.8 226.3 187.7 226.2 188.6 226.2 189.5 226.2 190.4 226.1 191.4 226.1 192.3 226 193.2 225.9 194.2 225.8 195.2 225.7 196.1 225.6 197.1 225.5 198.1 225.3 199.1 225.1 200 225 201 224.8 202.1 224.6 203.1 224.4 204.1 224.1 205.1 223.9 206.1 223.6 207.2 223.3 208.2 223 209.3 222.7 210.3 222.4 211.4 222 212.4 221.7 213.5 221.3 214.6 220.9 215.6 220.5 216.7 220.1 217.8 219.6 218.8 219.2 219.9 218.7 221 218.2 222.1 217.7 223.1 217.1 224.2 216.6 225.3 216 226.4 215.4 227.5 214.8 228.5 214.2 229.6 213.5 230.7 212.9 231.8 212.2 232.8 211.5 233.9 210.8 235 210 236 209.3 237.1 208.5 238.1 207.7 239.2 206.9 240.2 206 241.3 205.2 242.3 204.3 243.3 203.4 244.3 202.5 245.3 201.6 246.4 200.6 247.3 199.7 248.3 198.7 249.3 197.7 250.3 196.6 251.2 195.6 252.2 194.5 253.1 193.4 254.1 192.3 255 191.2 255.9 190.1 256.8 188.9 257.7 187.7 258.5 186.6 259.4 185.3 260.2 184.1 261.1 182.9 261.9 181.6 262.7 180.3 263.5 179 264.3 177.7 265 176.4 265.8 175 266.5 173.7 267.2 172.3 267.9 170.9 268.6 169.5 269.2 168.1 269.9 166.7 270.5 165.2 271.1 163.7 271.7 162.3 272.2 160.8 272.8 159.3 273.3 157.7 273.8 156.2 274.3 154.7 274.7 153.1 275.2 151.5 275.6 150 276 148.4 276.4 146.8 276.7 145.2 277.1 143.6 277.4 141.9 277.7 140.3 277.9 138.6 278.2 137 278.4 135.3 278.6 133.7 278.8 132 278.9 130.3 279 128.6 279.1 126.9 279.2 125.2 279.2 123.5 279.3 121.8 279.3 120.1 279.2 118.4 279.2 116.6 279.1 114.9 279 113.2 278.9 111.4 278.7 109.7 278.5 108 278.3 106.2 278.1 104.5 277.8 102.8 277.5 101 277.2 99.3 276.9 97.6 276.5 95.9 276.1 94.1 275.7 92.4 275.3 90.7 274.8 89 274.3 87.3 273.8 85.6 273.2 83.9 272.7 82.2 272.1 80.5 271.4 78.8 270.8 77.1 270.1 75.5 269.4 73.8 268.7 72.2 267.9 70.5 267.1 68.9 266.3 67.3 265.5 65.7 264.6 64.1 263.7 62.5 262.8 60.9 261.9 59.3 260.9 57.8 259.9 56.2 258.9 54.7 257.9 53.2 256.8 51.7 255.8 50.2 254.7 48.8 253.5 47.3 252.4 45.9 251.2 44.5 250 43.1 248.8 41.7 247.6 40.3 246.3 39 245 37.6 243.7 36.3 242.4 35 241.1 33.8 239.7 32.5 238.3 31.3 236.9 30.1 235.5 28.9 234.1 27.7 232.6 26.6 231.2 25.4 229.7 24.3 228.2 23.2 226.6 22.2 225.1 21.2 223.5 20.1 222 19.1 220.4 18.2 218.8 17.2 217.2 16.3 215.5 15.4 213.9 14.6 212.2 13.7 210.6 12.9 208.9 12.1 207.2 11.3 205.5 10.6 203.8 9.9 202.1 9.2 200.3 8.5 198.6 7.9 196.8 7.3 195.1 6.7 193.3 6.1 191.5 5.6 189.7 5.1 187.9 4.6 186.1 4.2 184.3 3.7 182.5 3.4 180.7 3 178.9 2.6 177.1 2.3 175.3 2 173.4 1.8 171.6 1.6 169.8 1.4 167.9 1.2 166.1 1 164.3 .9 162.4 .8 160.6 .8 158.8 .7 156.9 .7 155.1 .7 153.3 .8 151.4 .8 149.6 .9 147.8 1.1 146 1.2 144.2 1.4 142.4 1.6 140.6 1.8 138.8 2.1 137 2.4 135.2 2.7 133.4 3 131.7 3.4 129.9 3.8 128.2 4.2 126.4 4.6 124.7 5.1 123 5.6 121.3 6.1 119.6 6.6 117.9 7.2 116.2 7.7 114.5 8.3 112.9 9 111.3 9.6 109.6 10.3 108 11 106.4 11.7 104.8 12.4 103.3 13.2 101.7 14 100.2 14.8 98.6 15.6 97.1 16.5 95.6 17.3 94.2 18.2 92.7 19.1 91.3 20 89.8 20.9 88.4 21.9 87 22.9 85.7 23.9 84.3 24.9 83 25.9 81.7 26.9 80.4 28 79.1 29.1 77.8 30.1 76.6 31.2 75.4 32.4 74.2 33.5 73 34.6 71.8 35.8 70.7 36.9 69.6 38.1 68.5 39.3 67.4 40.5 66.3 41.7 65.3 42.9 64.3 44.2 63.3 45.4 62.3 46.7 61.4 47.9 60.5 49.2 59.6 50.5 58.7 51.8 57.8 53 57 54.3 56.2 55.6 55.4 57 54.6 58.3 53.9 59.6 53.1 60.9 52.4 62.2 51.8 63.6 51.1 64.9 50.5 66.2 49.8 67.6 49.2 68.9 48.7 70.3 48.1 71.6 47.6 73 47.1 74.3 46.6 75.7 46.1 77 45.7 78.3 45.3 79.7 44.9 81 44.5 82.4 44.1 83.7 43.8 85 43.5 86.4 43.2 87.7 42.9 89 42.6 90.4 42.4 91.7 42.2 93 42 94.3 41.8 95.6 41.6 96.9 41.5 98.2 41.4 99.5 41.3 100.8 41.2 102 41.1 103.3 41.1 104.6 41 105.8 41 107.1 41 108.3 41.1 109.5 41.1 110.7 41.1 111.9 41.2 113.1 41.3 114.3 41.4 115.5 41.5 116.7 41.6 117.8 41.8 119 41.9 120.1 42.1 121.3 42.3 122.4 42.5 123.5 42.7 124.6 42.9 125.7 43.2 126.7 43.4 127.8 43.7 128.8 43.9 129.9 44.2 130.9 44.5 131.9 44.8 132.9 45.1 133.9 45.5 134.9 45.8 135.8 46.1 136.8 46.5 137.7 46.8 138.6 47.2 139.5 47.6 140.4 48 141.3 48.4 142.2 48.8 143.1 49.2 143.9 49.6 144.7 50 145.6 50.4 146.4 50.8 147.2 51.3 147.9 51.7 148.7 52.1 149.5 52.6 150.2 53 150.9 53.5 151.7 53.9 152.4 54.4 153 54.9 153.7 55.3 154.4 55.8 155 56.2 155.7 56.7 156.3 57.2 156.9 57.6 157.5 58.1 158.1 58.6 158.7 59 159.3 59.5 159.8 60 160.4 60.4 160.9 60.9 161.5 61.4 162 61.8 162.5 62.3 163 62.8 163.5 63.2 163.9 63.7 164.4 64.1 164.9 64.6 165.3 65 165.7 65.4 166.2 65.9 166.6 66.3 167 66.7 167.4 67.2 167.8 67.6 168.2 68 168.6 68.4 168.9 68.8 169.3 69.2 169.6 69.6 170 70 170.3 70.4 170.7 70.7 171 71.1 171.3 71.5 171.6 71.8 172 72.2 172.3 72.6 172.6 72.9 172.9 73.2 173.2 73.6 173.5 73.9 173.8 74.2 174 74.5 174.3 74.8 174.6 75.1 174.9 75.4 175.2 75.7 175.4 76 175.7 76.3 176 76.5 176.3 76.8 176.5 77 176.8 77.3 177.1 77.5 177.3 77.8 177.6 78 177.9 78.2 178.1 78.4 178.4 78.6 178.7 78.8 178.9 79 179.2 79.2 179.5 79.4 179.8 79.6 180 79.8 180.3 79.9 180.6 80.1 180.9 80.3 181.2 80.4 181.5 80.6 181.8 80.7 182.1 80.9 182.4 81 182.7 81.1 183 81.3 183.3 81.4 183.7 81.5 184 81.6 184.3 81.7 184.7 81.9 185 82 185.4 82.1 185.7 82.2 186.1 82.3 186.5 82.4 186.9 82.5 187.2 82.6 187.6 82.7 188 82.8 188.4 82.9 188.8 82.9 189.3 83 189.7 83.1 190.1 83.2 190.6 83.3 191 83.4 191.5 83.5 191.9 83.6 192.4 83.7 192.9 83.8 193.4 83.9 193.9 84 194.4 84.1 194.9 84.2 195.4 84.3 195.9 84.4 196.5 84.5 197 84.7 197.6 84.8 198.1 84.9 198.7 85.1 199.2 85.2 199.8 85.3 200.4 85.5 201 85.7 201.6 85.8 202.2 86 202.9 86.2 203.5 86.3 204.1 86.5 204.8 86.7 205.4 86.9 206.1 87.2 206.7 87.4 207.4 87.6 208.1 87.9 208.8 88.1 209.4 88.4 210.1 88.6 210.8 88.9 211.5 89.2 212.3 89.5 213 89.8 213.7 90.1 214.4 90.5 215.2 90.8 215.9 91.2 216.6 91.5 217.4 91.9 218.1 92.3 218.9 92.7 219.7 93.1 220.4 93.5 221.2 94 221.9 94.4 222.7 94.9 223.5 95.4 224.3 95.9 225 96.4 225.8 96.9 226.6 97.5 227.4 98 228.2 98.6 228.9 99.2 229.7 99.8 230.5 100.4 231.3 101 232.1 101.6 232.8 102.3 233.6 103 234.4 103.7 235.2 104.4 235.9 105.1 236.7 105.8 237.5 106.6 238.2 107.4 239 108.1 239.7 108.9 240.5 109.8 241.2 110.6 242 111.4 242.7 112.3 243.4 113.2 244.1 114.1 244.8 115 245.5 115.9 246.2 116.9 246.9 117.8 247.6 118.8 248.3 119.8 249 120.8 249.6 121.8 250.3 122.9 250.9 123.9 251.5 125 252.1 126.1 252.7 127.2 253.3 128.3 253.9 129.4 254.5 130.6 255 131.8 255.6 132.9 256.1 134.1 256.6 135.3 257.1 136.6 257.6 137.8 258.1 139 258.5 140.3 259 141.6 259.4 142.9 259.8 144.2 260.2 145.5 260.6 146.8 261 148.1 261.3 149.5 261.6 150.9 261.9 152.2 262.2 153.6 262.5 155 262.8 156.4 263 157.8 263.2 159.3 263.4 160.7 263.6 162.1 263.8 163.6 263.9 165.1 264 166.5 264.1 168 264.2 169.5 264.3 171 264.3 172.5 264.3 174 264.3 175.5 264.3 177.1 264.2 178.6 264.1 180.1 264 181.7 263.9 183.2 263.8 184.8 263.6 186.3 263.4 187.9 263.2 189.4 263 191 262.7 192.6 262.4 194.1 262.1 195.7 261.8 197.3 261.4 198.8 261 200.4 260.6 202 260.2 203.5 259.8 205.1 259.3 206.7 258.8 208.2 258.3 209.8 257.7 211.3 257.1 212.9 256.5 214.4 255.9 216 255.3 217.5 254.6 219.1 253.9 220.6 253.2 222.1 252.4 223.6 251.6 225.1 250.9 226.6 250 228.1 249.2 229.6 248.3 231.1 247.4 232.6 246.5 234 245.6 235.5 244.6 236.9 243.6 238.3 242.6 239.8 241.6 241.2 240.5 242.5 239.5 243.9 238.4 245.3 237.2 246.6 236.1 248 234.9 249.3 233.7 250.6 232.5 251.9 231.3 253.2 230 254.5 228.7 255.7 227.5 256.9 226.1 258.1 224.8 259.3 223.4 260.5 222.1 261.7 220.7 262.8 219.3 263.9 217.8 265 216.4 266.1 214.9 267.2 213.4 268.2 211.9 269.2 210.4 270.2 208.8 271.2 207.3 272.2 205.7 273.1 204.1 274 202.5 274.9 200.9 275.8 199.3 276.6 197.6 277.4 196 278.2 194.3 279 192.6 279.7 190.9 280.5 189.2 281.1 187.5 281.8 185.7 282.5 184 283.1 182.2 283.7 180.5 284.3 178.7 284.8 176.9 285.3 175.1 285.8 173.3 286.3 171.5 286.7 169.7 287.1 167.9 287.5 166 287.9 164.2 288.2 162.4 288.5 160.5 288.8 158.7 289 156.8 289.2 154.9 289.4 153.1 289.6 151.2 289.7 149.4 289.8 147.5 289.9 145.6 290 143.7 290 141.9 290 140 290 138.1 289.9 136.3 289.8 134.4 289.7 132.5 289.6 130.7 289.4 128.8 289.2 127 289 125.1 288.7 123.3 288.4 121.4 288.1 119.6 287.8 117.8 287.4 115.9 287 114.1 286.6 112.3 286.2 110.5 285.7 108.7 285.2 106.9 284.7 105.2 284.1 103.4 283.6 101.7 283 99.9 282.3 98.2 281.7 96.5 281 94.7 280.3 93.1 279.6 91.4 278.8 89.7 278.1 88 277.3 86.4 276.4 84.8 275.6 83.1 274.7 81.5 273.8 80 272.9 78.4 272 76.8 271 75.3 270 73.8 269 72.3 268 70.8 267 69.3 265.9 67.9 264.8 66.5 263.7 65 262.6 63.7 261.4 62.3 260.3 60.9 259.1 59.6 257.9 58.3 256.7 57 255.4 55.7 254.2 54.5 252.9 53.2 251.6 52 250.4 50.8 249 49.7 247.7 48.5 246.4 47.4 245 46.3 243.6 45.3 242.3 44.2 240.9 43.2 239.5 42.2 238 41.2 236.6 40.2 235.2 39.3 233.7 38.4 232.3 37.5 230.8 36.6 229.3 35.8 227.8 35 226.3 34.2 224.8 33.4 223.3 32.7 221.8 32 220.3 31.3 218.7 30.6 217.2 30 215.7 29.3 214.1 28.8 212.6 28.2 211 27.6 209.5 27.1 207.9 26.6 206.3 26.1 204.8 25.7 203.2 25.3 201.6 24.9 200.1 24.5 198.5 24.2 196.9 23.8 195.4 23.5 193.8 23.2 192.2 23 190.7 22.8 189.1 22.5 187.6 22.4 186 22.2 184.5 22.1 182.9 21.9 181.4 21.9 179.8 21.8 178.3 21.7 176.8 21.7 175.2 21.7 173.7 21.7 172.2 21.8 170.7 21.8 169.2 21.9 167.7 22 166.2 22.1 164.8 22.3 163.3 22.4 161.9 22.6 160.4 22.8 159 23 157.5 23.3 156.1 23.5 154.7 23.8 153.3 24.1 151.9 24.4 150.6 24.8 149.2 25.1 147.9 25.5 146.5 25.9 145.2 26.3 143.9 26.7 142.6 27.1 141.3 27.6 140 28 138.8 28.5 137.5 29 136.3 29.5 135.1 30 133.9 30.5 132.7 31.1 131.5 31.6 130.4 32.2 129.2 32.8 128.1 33.4 127 34 125.9 34.6 124.8 35.2 123.7 35.9 122.7 36.5 121.6 37.2 120.6 37.9 119.6 38.5 118.6 39.2 117.6 39.9 116.7 40.6 115.7 41.3 114.8 42 113.9 42.7 113 43.5 112.1 44.2 111.3 44.9 110.4 45.7 109.6 46.4 108.8 47.2 108 47.9 107.2 48.7 106.4 49.5 105.7 50.2 104.9 51 104.2 51.8 103.5 52.5 102.8 53.3 102.2 54.1 101.5 54.9 100.9 55.7 100.3 56.4 99.6 57.2 99 58 98.5 58.8 97.9 59.6 97.4 60.3 96.8 61.1 96.3 61.9 95.8 62.7 95.3 63.4 94.8 64.2 94.3 65 93.9 65.7 93.5 66.5 93 67.3 92.6 68 92.2 68.8 91.8 69.5 91.4 70.3 91.1 71 90.7 71.7 90.4 72.5 90.1 73.2 89.7 73.9 89.4 74.6 89.1 75.3 88.9 76 88.6 76.7 88.3 77.4 88.1 78.1 87.8 78.7 87.6 79.4 87.3 80.1 87.1 80.7 86.9 81.4 86.7 82 86.5 82.6 86.3 83.3 86.1 83.9 86 84.5 85.8 85.1 85.6 85.7 85.5 86.3 85.3 86.9 85.2 87.4 85 88 84.9 88.6 84.8 89.1 84.6 89.7 84.5 90.2 84.4 90.7 84.3 91.2 84.2 91.7 84.1 92.2 84 92.7 83.9 93.2 83.8 93.7 83.7 94.2 83.6 94.6 83.5 95.1 83.4 95.5 83.3 96 83.2 96.4 83.1 96.8 83 97.2 82.9 97.6 82.8 98.1 82.7 98.4 82.6 98.8 82.6 99.2 82.5 99.6 82.4 100 82.3 100.3 82.2 100.7 82.1 101 81.9 101.4 81.8 101.7 81.7 102.1 81.6 102.4 81.5 102.7 81.4 103 81.2 103.4 81.1 103.7 81 104 80.8 104.3 80.7 104.6 80.6 104.9 80.4 105.2 80.2 105.4 80.1 105.7 79.9 106 79.7 106.3 79.6 106.6 79.4 106.8 79.2 107.1 79 107.4 78.8 107.7 78.6 107.9 78.4 108.2 78.2 108.5 77.9 108.7 77.7 109 77.5 109.3 77.2 109.5 77 109.8 76.7 110.1 76.5 110.3 76.2 110.6 75.9 110.9 75.6 111.2 75.4 111.4 75.1 111.7 74.8 112 74.5 112.3 74.1 112.6 73.8 112.9 73.5 113.2 73.2 113.5 72.8 113.8 72.5 114.1 72.1 114.4 71.8 114.7 71.4 115.1 71 115.4 70.7 115.7 70.3 116.1 69.9 116.4 69.5 116.8 69.1 117.2 68.7 117.5 68.3 117.9 67.9 118.3 67.5 118.7 67.1 119.1 66.6 119.5 66.2 119.9 65.8 120.4 65.3 120.8 64.9 121.2 64.5 121.7 64 122.2 63.6 122.6 63.1 123.1 62.7 123.6 62.2 124.1 61.7 124.6 61.3 125.2 60.8 125.7 60.4 126.3 59.9 126.8 59.4 127.4 59 128 58.5 128.6 58 129.2 57.6 129.8 57.1 130.4 56.6 131.1 56.2 131.7 55.7 132.4 55.2 133.1 54.8 133.8 54.3 134.5 53.8 135.2 53.4 135.9 52.9 136.7 52.5 137.4 52.1 138.2 51.6 139 51.2 139.8 50.7 140.6 50.3 141.4 49.9 142.3 49.5 143.1 49.1 144 48.7 144.9 48.3 145.7 47.9 146.6 47.5 147.6 47.1 148.5 46.8 149.4 46.4 150.4 46.1 151.3 45.7 152.3 45.4 153.3 45.1 154.3 44.8 155.3 44.5 156.3 44.2 157.4 43.9 158.4 43.6 159.5 43.4 160.6 43.1 161.7 42.9 162.7 42.7 163.9 42.4 165 42.2 166.1 42.1 167.2 41.9 168.4 41.7 169.6 41.6 170.7 41.5 171.9 41.4 173.1 41.3 174.3 41.2 175.5 41.1 176.7 41.1 178 41 179.2 41 180.4 41 181.7 41.1 183 41.1 184.2 41.1 185.5 41.2 186.8 41.3 188.1 41.4 189.4 41.5 190.7 41.7 192 41.8 193.3 42 194.6 42.2 195.9 42.4 197.2 42.7 198.6 42.9 199.9 43.2 201.2 43.5 202.6 43.9 203.9 44.2 205.2 44.6 206.6 44.9 207.9 45.3 209.3 45.8 210.6 46.2 212 46.7 213.3 47.2 214.7 47.7 216 48.2 217.4 48.8 218.7 49.4 220 50 221.4 50.6 222.7 51.2 224 51.9 225.4 52.6 226.7 53.3 228 54 229.3 54.8 230.6 55.5 231.9 56.3 233.2 57.2 234.5 58 235.8 58.9 237.1 59.8 238.3 60.7 239.6 61.6 240.8 62.5 242.1 63.5 243.3 64.5 244.5 65.5 245.7 66.6 246.9 67.6 248.1 68.7 249.3 69.8 250.5 70.9 251.6 72.1 252.7 73.2 253.9 74.4 255 75.6 256.1 76.8 257.2 78.1 258.2 79.3 259.3 80.6 260.3 81.9 261.3 83.2 262.3 84.6 263.3 85.9 264.3 87.3 265.2 88.7 266.2 90.1 267.1 91.6 268 93 268.9 94.5 269.7 95.9 270.6 97.4 271.4 99 272.2 100.5 272.9 102 273.7 103.6 274.4 105.2 275.2 106.7 275.8 108.3 276.5 110 277.2 111.6 277.8 113.2 278.4 114.9 279 116.6 279.5 118.2 280 119.9 280.5 121.6 281 123.3 281.5 125.1 281.9 126.8 282.3 128.5 282.7 130.3 283.1 132 283.4 133.8 283.7 135.6 284 137.4 284.2 139.1 284.4 140.9 284.6 142.7 284.8 144.5 285 146.4 285.1 148.2 285.2 150 285.2 151.8 285.3 153.6 285.3 155.5 285.3 157.3 285.2 159.1 285.2 161 285.1 162.8 284.9 164.6 284.8 166.5 284.6 168.3 284.4 170.1 284.2 172 283.9 173.8 283.6 175.6 283.3 177.5 282.9 179.3 282.6 181.1 282.2 182.9 281.7 184.7 281.3 186.5 280.8 188.3 280.3 190.1 279.8 191.9 279.2 193.7 278.6 195.4 278 197.2 277.3 198.9 276.7 200.7 276 202.4 275.3 204.1 274.5 205.9 273.7 207.6 272.9 209.2 272.1 210.9 271.3 212.6 270.4 214.2 269.5 215.9 268.6 217.5 267.6 219.1 266.7 220.7 265.7 222.3 264.6 223.9 263.6 225.4 262.5 227 261.4 228.5 260.3 230 259.2 231.5 258.1 232.9 256.9 234.4 255.7 235.8 254.5 237.2 253.2 238.6 252 240 250.7 241.4 249.4 242.7 248.1 244 246.8 245.3 245.4 246.6 244 247.8 242.6 249.1 241.2 250.3 239.8 251.5 238.4 252.6 236.9 253.8 235.5 254.9 234 256 232.5 257.1 231 258.1 229.4 259.1 227.9 260.1 226.3 261.1 224.8 262.1 223.2 263 221.6 263.9 220 264.8 218.4 265.6 216.8 266.5 215.1 267.3 213.5 268 211.9 268.8 210.2 269.5 208.5 270.2 206.9 270.9 205.2 271.6 203.5 272.2 201.8 272.8 200.1 273.3 198.4 273.9 196.7 274.4 195 274.9 193.2 275.4 191.5 275.8 189.8 276.2 188.1 276.6 186.3 277 184.6 277.3 182.9 277.6 181.1 277.9 179.4 278.1 177.7 278.4 175.9 278.6 174.2 278.8 172.5 278.9 170.7 279 169 279.1 167.3 279.2 165.6 279.2 163.9 279.3 162.2 279.3 160.4 279.2 158.7 279.2 157.1 279.1 155.4 279 153.7 278.9 152 278.7 150.3 278.6 148.7 278.4 147 278.1 145.4 277.9 143.7 277.6 142.1 277.3 140.5 277 138.9 276.7 137.3 276.3 135.7 275.9 134.1 275.5 132.6 275.1 131 274.7 129.5 274.2 127.9 273.7 126.4 273.2 124.9 272.7 123.4 272.1 122 271.5 120.5 271 119.1 270.4 117.6 269.7 116.2 269.1 114.8 268.4 113.4 267.7 112 267 110.7 266.3 109.3 265.6 108 264.9 106.7 264.1 105.4 263.3 104.1 262.5 102.9 261.7 101.6 260.9 100.4 260.1 99.2 259.2 98 258.4 96.8 257.5 95.7 256.6 94.6 255.7 93.4 254.8 92.3 253.9 91.3 252.9 90.2 252 89.2 251.1 88.1 250.1 87.1 249.1 86.1 248.1 85.2 247.1 84.2 246.1 83.3 245.1 82.4 244.1 81.5 243.1 80.6 242.1 79.8 241.1 78.9 240 78.1 239 77.3 237.9 76.6 236.9 75.8 235.8 75.1 234.8 74.4 233.7 73.7 232.6 73 231.5 72.3 230.5 71.7 229.4 71.1 228.3 70.4 227.2 69.9 226.2 69.3 225.1 68.7 224 68.2 222.9 67.7 221.8 67.2 220.8 66.7 219.7 66.3 218.6 65.8 217.5 65.4 216.5 65 215.4 64.6 214.3 64.2 213.3 63.9 212.2 63.5 211.2 63.2 210.1 62.9 209.1 62.6 208 62.3 207 62.1 205.9 61.8 204.9 61.6 203.9 61.4 202.9 61.2 201.9 61 200.8 60.8 199.8 60.7 198.9 60.5 197.9 60.4 196.9 60.3 195.9 60.2 195 60.1 194 60 193.1 59.9 192.1 59.9 191.2 59.8 190.3 59.8 189.3 59.7 188.4 59.7 187.5 59.7 186.7 59.7 185.8 59.7 184.9 59.8 184.1 59.8 183.2 59.8 182.4 59.9 181.5 60 180.7 60 179.9 60.1 179.1 60.2 178.3 60.3 177.5 60.4 176.8 60.5 176 60.6 175.2 60.7 174.5 60.8 173.8 60.9 173.1 61.1 172.4 61.2 171.7 61.3 171 61.5 170.3 61.6 169.6 61.8 169 61.9 168.3 62.1 167.7 62.2 167 62.4 166.4 62.5 165.8 62.7 165.2 62.9 164.6 63 164 63.2 163.5 63.4 162.9 63.5 162.4 63.7 161.8 63.9 161.3 64 160.8 64.2 160.2 64.3 159.7 64.5 159.2 64.7 158.7 64.8 158.3 65 157.8 65.1 157.3 65.3 156.9 65.4 156.4 65.6 156 65.7 155.5 65.9 155.1 66 154.7 66.2 154.2 66.3 153.8 66.4 153.4 66.5 153 66.7 152.6 66.8 152.3 66.9 151.9 67 151.5 67.1 151.1 67.2 150.7 67.3 150.4 67.4 150 67.4 149.7 67.5 149.3 67.6 149 67.7 148.6 67.7 148.3 67.8 147.9 67.8 147.6 67.9 147.3 67.9 146.9 67.9 146.6 68 146.3 68 145.9 68 145.6 68 145.3 68 144.9 68 144.6 68 144.3 68 143.9 67.9 143.6 67.9 143.3 67.9 142.9 67.8 142.6 67.8 142.3 67.8 141.9 67.7 141.6 67.6 141.2 67.6 140.9 67.5 140.5 67.4 140.2 67.3 139.8 67.2 139.5 67.1 139.1 67 138.7 66.9 138.4 66.8 138 66.7 137.6 66.6 137.2 66.5 136.8 66.4 136.4 66.2 136 66.1 135.6 66 135.2 65.8 134.7 65.7 134.3 65.5 133.9 65.4 133.4 65.2 133 65.1 132.5 64.9 132 64.8 131.5 64.6 131.1 64.4 130.6 64.3 130.1 64.1 129.6 63.9 129 63.8 128.5 63.6 128 63.5 127.4 63.3 126.9 63.1 126.3 63 125.7 62.8 125.1 62.6 124.5 62.5 123.9 62.3 123.3 62.2 122.7 62 122.1 61.8 121.4 61.7 120.8 61.5 120.1 61.4 119.4 61.3 118.8 61.1 118.1 61 117.4 60.9 116.6 60.8 115.9 60.6 115.2 60.5 114.4 60.4 113.7 60.3 112.9 60.2 112.2 60.1 111.4 60.1 110.6 60 109.8 59.9 109 59.9 108.1 59.8 107.3 59.8 106.4 59.8 105.6 59.7 104.7 59.7 103.9 59.7 103 59.7 102.1 59.8 101.2 59.8 100.3 59.8 99.4 59.9 98.4 59.9 97.5 60 96.6 60.1 95.6 60.2 94.7 60.3 93.7 60.4 92.7 60.6 91.7 60.7 90.7 60.9 89.7 61.1 88.7 61.3 87.7 61.5 86.7 61.7 85.7 61.9 84.7 62.2 83.6 62.5 82.6 62.7 81.6 63 80.5 63.3 79.5 63.7 78.4 64 77.4 64.4 76.3 64.8 75.2 65.2 74.2 65.6 73.1 66 72 66.5 70.9 66.9 69.9 67.4 68.8 67.9 67.7 68.4 66.6 69 65.6 69.5 64.5 70.1 63.4 70.7 62.3 71.3 61.2 71.9 60.2 72.6 59.1 73.3 58 73.9 56.9 74.6 55.9 75.4 54.8 76.1 53.8 76.9 52.7 77.7 51.6 78.5 50.6 79.3 49.6 80.1 48.5 81 47.5 81.9 46.5 82.8 45.5 83.7 44.4 84.6 43.4 85.6 42.4 86.5 41.5 87.5 40.5 88.6 39.5 89.6 38.6 90.6 37.6 91.7 36.7 92.8 35.7 93.9 34.8 95 33.9 96.2 33 97.3 32.2 98.5 31.3 99.7 30.4 100.9 29.6 102.1 28.8 103.4 27.9 104.7 27.1 105.9 26.4 107.2 25.6 108.5 24.8 109.9 24.1 111.2 23.4 112.6 22.7 114 22 115.4 21.3 116.8 20.7 118.2 20 119.6 19.4 121.1 18.8 122.6 18.2 124 17.7 125.5 17.1 127 16.6 128.6 16.1 130.1 15.6 131.6 15.2 133.2 14.7 134.8 14.3 136.4 13.9 137.9 13.5 139.5 13.2 141.2 12.9 142.8 12.6 144.4 12.3 146 12 147.7 11.8 149.4 11.6 151 11.4 152.7 11.2 154.4 11.1 156.1 10.9 157.7 10.9 159.4 10.8 161.1 10.7 162.9 10.7 164.6 10.7 166.3 10.8 168 10.8 169.7 10.9 171.4 11 173.2 11.2 174.9 11.3 176.6 11.5 178.4 11.7 180.1 12 181.8 12.2 183.6 12.5 185.3 12.8 187 13.2 188.8 13.5 190.5 13.9 192.2 14.4 193.9 14.8 195.7 15.3 197.4 15.8 199.1 16.3 200.8 16.9 202.5 17.5 204.2 18.1 205.9 18.7 207.5 19.4 209.2 20.1 210.9 20.8 212.5 21.5 214.2 22.3 215.8 23.1 217.4 23.9 219.1 24.7 220.7 25.6 222.3 26.5 223.8 27.4 225.4 28.3 227 29.3 228.5 30.3 230.1 31.3 231.6 32.3 233.1 33.4 234.6 34.5 236.1 35.6 237.5 36.7 239 37.8 240.4 39 241.8 40.2 243.2 41.4 244.6 42.7 246 43.9 247.3 45.2 248.6 46.5 249.9 47.8 251.2 49.2 252.5 50.6 253.7 51.9 255 53.3 256.2 54.8 257.4 56.2 258.5 57.7 259.7 59.1 260.8 60.6 261.9 62.1 263 63.7 264 65.2 265.1 66.8 266.1 68.3 267.1 69.9 268 71.5 268.9 73.2 269.9 74.8 270.8 76.4 271.6 78.1 272.5 79.8 273.3 81.4 274.1 83.1 274.8 84.8 275.6 86.6 276.3 88.3 277 90 277.6 91.8 278.2 93.5 278.8 95.3 279.4 97.1 280 98.8 280.5 100.6 281 102.4 281.5 104.2 281.9 106 282.3 107.8 282.7 109.6 283.1 111.5 283.4 113.3 283.7 115.1 284 116.9 284.3 118.8 284.5 120.6 284.7 122.4 284.8 124.3 285 126.1 285.1 127.9 285.2 129.8 285.3 131.6 285.3 133.4 285.3 135.3 285.3 137.1 285.2 138.9 285.1 140.8 285 142.6 284.9 144.4 284.7 146.2 284.6 148 284.4 149.8 284.1 151.6 283.9 153.4 283.6 155.1 283.3 156.9 282.9 158.7 282.5 160.4 282.2 162.2 281.7 163.9 281.3 165.6 280.8 167.4 280.3 169.1 279.8 170.8 279.3 172.5 278.7 174.1 278.1 175.8 277.5 177.4 276.9 179.1 276.2 180.7 275.6 182.3 274.9 183.9 274.1 185.5 273.4 187.1 272.6 188.6 271.9 190.1 271 191.7 270.2 193.2 269.4 194.7 268.5 196.1 267.6 197.6 266.7 199 265.8 200.5 264.9 201.9 263.9 203.2 262.9 204.6 261.9 206 260.9 207.3 259.9 208.6 258.9 209.9 257.8 211.2 256.7 212.4 255.6 213.7 254.5 214.9 253.4 216.1 252.3 217.3 251.1 218.4 250 219.5 248.8 220.7 247.6 221.7 246.4 222.8 245.2 223.9 244 224.9 242.8 225.9 241.6 226.9 240.3 227.8 239.1 228.8 237.8 229.7 236.5 230.6 235.3 231.5 234 232.3 232.7 233.2 231.4 234 230.1 234.8 228.8 235.5 227.5 236.3 226.1 237 224.8 237.7 223.5 238.4 222.2 239 220.8 239.7 219.5 240.3 218.1 240.9 216.8 241.4 215.5 242 214.1 242.5 212.8 243 211.4 243.5 210.1 244 208.7 244.4 207.4 244.8 206 245.2 204.7 245.6 203.4 245.9 202 246.3 200.7 246.6 199.3 246.9 198 247.2 196.7 247.4 195.4 247.6 194 247.9 192.7 248.1 191.4 248.2 190.1 248.4 188.8 248.5 187.5 248.6 186.3 248.7 185 248.8 183.7 248.9 182.4 248.9 181.2 249 179.9 249 178.7 249 177.5 248.9 176.2 248.9 175 248.8 173.8 248.8 172.6 248.7 171.4 248.6 170.3 248.5 169.1 248.3 167.9 248.2 166.8 248 165.6 247.9 164.5 247.7 163.4 247.5 162.3 247.3 161.2 247 160.1 246.8 159.1 246.5 158 246.3 157 246 155.9 245.7 154.9 245.4 153.9 245.1 152.9 244.8 151.9 244.5 150.9 244.1 150 243.8 149 243.4 148.1 243.1 147.2 242.7 146.3 242.3 145.4 242 144.5 241.6 143.6 241.2 142.8 240.8 141.9 240.3 141.1 239.9 140.3 239.5 139.5 239.1 138.7 238.6 137.9 238.2 137.1 237.8 136.4 237.3 135.6 236.9 134.9 236.4 134.2 236 133.5 235.5 132.8 235.1 132.1 234.6 131.5 234.1 130.8 233.7 130.2 233.2 129.6 232.7 128.9 232.3 128.3 231.8 127.7 231.3 127.2 230.9 126.6 230.4 126 229.9 125.5 229.5 125 229 124.4 228.5 123.9 228.1 123.4 227.6 122.9 227.2 122.4 226.7 122 226.2 121.5 225.8 121.1 225.4 120.6 224.9 120.2 224.5 119.8 224 119.3 223.6 118.9 223.2 118.5 222.8 118.1 222.3 117.8 221.9 117.4 221.5 117 221.1 116.6 220.7 116.3 220.3 115.9 219.9 115.6 219.6 115.3 219.2 114.9 218.8 114.6 218.4 114.3 218.1 114 217.7 113.7 217.4 113.4 217 113.1 216.7 112.8 216.4 112.5 216 112.2 215.7 111.9 215.4 111.6 215.1 111.3 214.8 111.1 214.5 110.8 214.2 110.5 214 110.2 213.7 110 213.4 109.7 213.2 109.4 212.9 109.2 212.7 108.9 212.4 108.6 212.2 108.4 212 108.1 211.7 107.8 211.5 107.5 211.3 107.3 211.1 107 210.9 106.7 210.7 106.5 210.5 106.2 210.4 105.9 210.2 105.6 210 105.3 209.9 105 209.7 104.7 209.5 104.4 209.4 104.1 209.2 103.8 209.1 103.5 209 103.2 208.8 102.9 208.7 102.6 208.6 102.3 208.5 101.9 208.3 101.6 208.2 101.2 208.1 100.9 208 100.5 207.9 100.2 207.8 99.8 207.7 99.4 207.6 99.1 207.5 98.7 207.4 98.3 207.3 97.9 207.2 97.5 207.1 97.1 207 96.6 206.9 96.2 206.9 95.8 206.8 95.3 206.7 94.9 206.6 94.4 206.5 94 206.4 93.5 206.3 93 206.2 92.5 206.1 92 206 91.5 205.9 91 205.8 90.5 205.7 90 205.5 89.4 205.4 88.9 205.3 88.3 205.2 87.8 205 87.2 204.9 86.6 204.8 86.1 204.6 85.5 204.5 84.9 204.3 84.3 204.1 83.6 204 83 203.8 82.4 203.6 81.8 203.4 81.1 203.2 80.5 203 79.8 202.8 79.1 202.6 78.5 202.3 77.8 202.1 77.1 201.8 76.4 201.6 75.7 201.3 75 201 74.3 200.7 73.6 200.4 72.9 200.1 72.2 199.8 71.4 199.5 70.7 199.1 70 198.8 69.2 198.4 68.5 198 67.7 197.6 67 197.2 66.2 196.8 65.4 196.4 64.7 195.9 63.9 195.5 63.1 195 62.4 194.5 61.6 194 60.8 193.5 60 193 59.2 192.4 58.5 191.9 57.7 191.3 56.9 190.7 56.1 190.1 55.3 189.5 54.6 188.9 53.8 188.2 53 187.6 52.2 186.9 51.5 186.2 50.7 185.5 49.9 184.8 49.2 184 48.4 183.3 47.6 182.5 46.9 181.7 46.1 180.9 45.4 180.1 44.6 179.2 43.9 178.4 43.2 177.5 42.4 176.6 41.7 175.7 41 174.8 40.3 173.9 39.6 172.9 38.9 172 38.2 171 37.6 170 36.9 169 36.3 168 35.6 166.9 35 165.8 34.4 164.8 33.8 163.7 33.1 162.6 32.6 161.5 32 160.3 31.4 159.2 30.9 158 30.3 156.8 29.8 155.6 29.3 154.4 28.8 153.2 28.3 152 27.8 150.7 27.4 149.4 26.9 148.2 26.5 146.9 26.1 145.6 25.7 144.3 25.3 142.9 25 141.6 24.6 140.2 24.3 138.9 24 137.5 23.7 136.1 23.4 134.7 23.2 133.3 22.9 131.9 22.7 130.4 22.5 129 22.4 127.6 22.2 126.1 22.1 124.6 22 123.2 21.9 121.7 21.8 120.2 21.7 118.7 21.7 117.2 21.7 115.7 21.7 114.1 21.7 112.6 21.8 111.1 21.9 109.6 22 108 22.1 106.5 22.3 104.9 22.4 103.4 22.6 101.8 22.8 100.2 23.1 98.7 23.4 97.1 23.6 95.6 24 94 24.3 92.4 24.7 90.9 25 89.3 25.4 87.7 25.9 86.2 26.3 84.6 26.8 83 27.3 81.5 27.9 79.9 28.4 78.3 29 76.8 29.6 75.2 30.2 73.7 30.9 72.2 31.6 70.6 32.3 69.1 33 67.6 33.7 66.1 34.5 64.6 35.3 63.1 36.1 61.6 37 60.1 37.9 58.6 38.8 57.1 39.7 55.7 40.6 54.2 41.6 52.8 42.6 51.4 43.6 50 44.6 48.6 45.7 47.2 46.8 45.8 47.9 44.4 49 43.1 50.2 41.7 51.3 40.4 52.5 39.1 53.7 37.8 55 36.6 56.2 35.3 57.5 34.1 58.8 32.8 60.1 31.6 61.5 30.4 62.8 29.3 64.2 28.1 65.6 27 67 25.8 68.5 24.8 69.9 23.7 71.4 22.6 72.9 21.6 74.4 20.6 75.9 19.6 77.5 18.6 79 17.6 80.6 16.7 82.2 15.8 83.8 14.9 85.4 14.1 87.1 13.2 88.7 12.4 90.4 11.6 92.1 10.9 93.7 10.1 95.4 9.4 97.2 8.7 98.9 8 100.6 7.4 102.4 6.8 104.1 6.2 105.9 5.6 107.7 5.1 109.5 4.6 111.3 4.1 113.1 3.6 114.9 3.2 116.7 2.8 118.5 2.4 120.3 2.1 122.2 1.7 124 1.4 125.9 1.2 127.7 .9 129.6 .7 131.4 .5 133.3 .4 135.2 .2 137 .1 138.9 .1 140.8 0 142.6 0 144.5 0 146.4 0 148.2 .1 150.1 .2 152 .3 153.8 .5 155.7 .6 157.6 .8 159.4 1.1 161.3 1.3 163.1 1.6 164.9 1.9 166.8 2.3 168.6 2.6 170.4 3 172.2 3.5 174 3.9 175.8 4.4 177.6 4.9 179.4 5.4 181.2 6 183 6.6 184.7 7.2 186.4 7.8 188.2 8.5 189.9 9.1 191.6 9.8 193.3 10.6 195 11.3 196.6 12.1 198.3 12.9 199.9 13.7 201.6 14.6 203.2 15.5 204.8 16.4 206.4 17.3 207.9 18.2 209.5 19.2 211 20.2 212.5 21.2 214 22.2 215.5 23.3 217 24.3 218.4 25.4 219.8 26.5 221.2 27.7 222.6 28.8 224 30 225.3 31.2 226.7 32.4 228 33.6 229.3 34.8 230.5 36.1 231.8 37.3 233 38.6 234.2 39.9 235.4 41.2 236.5 42.6 237.7 43.9 238.8 45.3 239.9 46.6 241 48 242 49.4 243 50.8 244 52.2 245 53.7 246 55.1 246.9 56.6 247.8 58 248.7 59.5 249.5 61 250.4 62.5 251.2 64 252 65.5 252.7 67 253.5 68.5 254.2 70 254.9 71.6 255.5 73.1 256.2 74.6 256.8 76.2 257.4 77.7 257.9 79.3 258.5 80.9 259 82.4 259.5 84 259.9 85.5 260.4 87.1 260.8 88.7 261.2 90.2 261.6 91.8 261.9 93.4 262.2 94.9 262.5 96.5 262.8 98.1 263.1 99.6 263.3 101.2 263.5 102.8 263.7 104.3 263.8 105.9 264 107.4 264.1 109 264.2 110.5 264.2 112 264.3 113.6 264.3 115.1 264.3 116.6 264.3 118.1 264.2 119.6 264.2 121.1 264.1 122.6 264 124.1 263.8 125.5 263.7 127 263.5 128.4 263.3 129.9 263.1 131.3 262.9 132.7 262.7 134.2 262.4 135.6 262.1 136.9 261.8 138.3 261.5 139.7 261.2 141.1 260.8 142.4 260.4 143.7 260.1 145.1 259.7 146.4 259.2 147.7 258.8 148.9 258.4 150.2 257.9 151.5 257.4 152.7 256.9 153.9 256.4 155.2 255.9 156.4 255.3 157.5 254.8 158.7 254.2 159.9 253.7 161 253.1 162.1 252.5 163.3 251.9 164.4 251.3 165.4 250.6 166.5 250 167.5 249.3 168.6 248.7 169.6 248 170.6 247.3 171.6 246.7 172.6 246 173.5 245.3 174.5 244.5 175.4 243.8 176.3 243.1 177.2 242.4 178.1 241.7 178.9 240.9 179.8 240.2 180.6 239.4 181.4 238.7 182.2 237.9 183 237.1 183.7 236.4 184.5 235.6 185.2 234.8 185.9 234.1 186.6 233.3 187.3 232.5 188 231.7 188.6 231 189.3 230.2 189.9 229.4 190.5 228.6 191.1 227.8 191.6 227.1 192.2 226.3 192.8 225.5 193.3 224.7 193.8 223.9 194.3 223.2 194.8 222.4 195.3 221.6 195.7 220.9 196.2 220.1 196.6 219.3 197.1 218.6 197.5 217.8 197.9 217.1 198.3 216.3 198.6 215.6 199 214.9 199.3 214.1 199.7 213.4 200 212.7 200.3 212 200.6 211.3 200.9 210.6 201.2 209.9 201.5 209.2 201.7 208.5 202 207.8 202.2 207.1 202.5 206.5 202.7 205.8 202.9 205.1 203.1 204.5 203.3 203.9 203.5 203.2 203.7 202.6 203.9 202 204.1 201.4 204.2 200.8 204.4 200.2 204.6 199.6 204.7 199 204.9 198.4 205 197.9 205.1 197.3 205.3 196.8 205.4 196.2 205.5 195.7 205.6 195.2 205.7 194.7 205.8 194.2 205.9 193.7 206.1 193.2 206.2 192.7 206.3 192.2 206.3 191.7 206.4 191.3 206.5 190.8 206.6 190.4 206.7 189.9 206.8 189.5 206.9 189.1 207 188.7 207.1 188.3 207.2 187.9 207.3 187.5 207.4 187.1 207.5 186.7 207.6 186.3 207.7 186 207.8 185.6 207.9 185.2 208 184.9 208.1 184.5 208.2 184.2 208.3 183.9 208.4 183.5 208.5 183.2 208.7 182.9 208.8 182.6 208.9 182.3 209.1 182 209.2 181.7 209.3 181.4 209.5 181.1 209.6 180.8 209.8 180.5 210 180.2 210.1 179.9 210.3 179.7 210.5 179.4 210.7 179.1 210.8 178.8 211 178.6 211.2 178.3 211.4 178 211.7 177.7 211.9 177.5 212.1 177.2 212.3 176.9 212.6 176.7 212.8 176.4 213.1 176.1 213.3 175.9 213.6 175.6 213.9 175.3 214.1 175.1 214.4 174.8 214.7 174.5 215 174.2 215.3 173.9 215.6 173.6 215.9 173.4 216.2 173.1 216.6 172.8 216.9 172.5 217.2 172.1 217.6 171.8 217.9 171.5 218.3 171.2 218.7 170.9 219 170.5 219.4 170.2 219.8 169.8 220.2 169.5 220.6 169.1 221 168.8 221.4 168.4 221.8 168 222.2 167.6 222.6 167.2 223 166.8 223.4 166.4 223.9 166 224.3 165.6 224.7 165.1 225.2 164.7 225.6 164.2 226.1 163.7 226.5 163.3 227 162.8 227.4 162.3 227.9 161.8 228.4 161.2 228.8 160.7 229.3 160.2 229.7 159.6 230.2 159.1 230.7 158.5 231.1 157.9 231.6 157.3 232.1 156.7 232.5 156.1 233 155.4 233.5 154.8 233.9 154.1 234.4 153.4 234.9 152.8 235.3 152.1 235.8 151.4 236.2 150.6 236.7 149.9 237.1 149.2 237.6 148.4 238 147.6 238.5 146.8 238.9 146 239.3 145.2 239.8 144.4 240.2 143.6 240.6 142.7 241 141.8 241.4 141 241.8 140.1 242.2 139.2 242.6 138.3 242.9 137.3 243.3 136.4 243.7 135.4 244 134.5 244.3 133.5 244.7 132.5 245 131.5 245.3 130.5 245.6 129.4 245.9 128.4 246.2 127.4 246.4 126.3 246.7 125.2 246.9 124.1 247.2 123 247.4 121.9 247.6 120.8 247.8 119.7 248 118.5 248.1 117.4 248.3 116.2 248.4 115 248.5 113.8 248.7 112.7 248.7 111.5 248.8 110.2 248.9 109 248.9 107.8 249 106.6 249 105.3 249 104.1 248.9 102.8 248.9 101.5 248.8 100.2 248.8 99 248.7 97.7 248.6 96.4 248.4 95.1 248.3 93.8 248.1 92.5 247.9 91.1 247.7 89.8 247.5 88.5 247.3 87.2 247 85.8 246.7 84.5 246.4 83.2 246.1 81.8 245.7 80.5 245.4 79.1 245 77.8 244.6 76.4 244.1 75.1 243.7 73.8 243.2 72.4 242.7 71.1 242.2 69.7 241.7 68.4 241.1 67 240.5 65.7 239.9 64.4 239.3 63 238.6 61.7 238 60.4 237.3 59 236.6 57.7 235.8 56.4 235.1 55.1 234.3 53.8 233.5 52.5 232.7 51.2 231.8 49.9 231 48.7 230.1 47.4 229.2 46.2 228.2 44.9 227.3 43.7 226.3 42.4 225.3 41.2 224.3 40 223.2 38.8 222.2 37.6 221.1 36.5 220 35.3 218.8 34.2 217.7 33 216.5 31.9 215.3 30.8 214.1 29.7 212.9 28.6 211.7 27.6 210.4 26.5 209.1 25.5 207.8 24.5 206.5 23.5 205.1 22.5 203.8 21.5 202.4 20.6 201 19.6 199.6 18.7 198.2 17.8 196.7 17 195.2 16.1 193.8 15.3 192.3 14.5 190.7 13.7 189.2 12.9 187.7 12.1 186.1 11.4 184.5 10.7 182.9 10 181.3 9.4 179.7 8.7 178.1 8.1 176.4 7.5 174.8 6.9 173.1 6.4 171.4 5.9 169.7 5.4 168 4.9 166.3 4.4 164.6 4 162.9 3.6 161.1 3.2 159.4 2.9 157.6 2.6 155.8 2.3 154.1 2 152.3 1.7 150.5 1.5 148.7 1.3 146.9 1.2 145.1 1 143.3 .9 141.5 .8 139.6 .8 137.8 .7 136 .7 134.2 .7 132.3 .8 130.5 .9 128.7 1 126.8 1.1 125 1.3 123.2 1.4 121.3 1.7 119.5 1.9 117.7 2.2 115.8 2.5 114 2.8 112.2 3.1 110.4 3.5 108.5 3.9 106.7 4.4 104.9 4.8 103.1 5.3 101.3 5.8 99.5 6.4 97.8 6.9 96 7.5 94.2 8.1 92.5 8.8 90.7 9.5 89 10.2 87.2 10.9 85.5 11.6 83.8 12.4 82.1 13.2 80.4 14.1 78.7 14.9 77.1 15.8 75.4 16.7 73.8 17.6 72.2 18.6 70.6 19.5 69 20.5 67.4 21.6 65.8 22.6 64.3 23.7 62.7 24.8 61.2 25.9 59.7 27 58.2 28.2 56.8 29.4 55.3 30.6 53.9 31.8 52.5 33 51.1 34.3 49.7 35.6 48.4 36.9 47 38.2 45.7 39.5 44.4 40.9 43.2 42.2 41.9 43.6 40.7 45 39.5 46.5 38.3 47.9 37.1 49.4 36 50.8 34.9 52.3 33.8 53.8 32.7 55.3 31.7 56.9 30.7 58.4 29.7 60 28.7 61.5 27.7 63.1 26.8 64.7 25.9 66.3 25 67.9 24.2 69.6 23.4 71.2 22.6 72.8 21.8 74.5 21 76.1 20.3 77.8 19.6 79.5 19 81.2 18.3 82.9 17.7 84.6 17.1 86.3 16.5 88 16 89.7 15.5 91.4 15 93.1 14.5 94.8 14.1 96.6 13.7 98.3 13.3 100 13 101.8 12.6 103.5 12.3 105.2 12.1 107 11.8 108.7 11.6 110.4 11.4 112.1 11.2 113.9 11.1 115.6 10.9 117.3 10.9 119.1 10.8 120.8 10.7 122.5 10.7 124.2 10.7 125.9 10.8 127.6 10.8 129.3 10.9 131 11 132.7 11.1 134.3 11.3 136 11.5 137.7 11.7 139.3 11.9 141 12.2 142.6 12.4 144.2 12.7 145.8 13.1 147.4 13.4 149 13.8 150.6 14.1 152.2 14.6 153.8 15 155.3 15.4 156.8 15.9 158.4 16.4 159.9 16.9 161.4 17.4 162.9 18 164.3 18.6 165.8 19.2 167.2 19.8 168.7 20.4 170.1 21.1 171.5 21.7 172.9 22.4 174.2 23.1 175.6 23.8 176.9 24.5 178.3 25.3 179.6 26.1 180.9 26.8 182.1 27.6 183.4 28.4 184.6 29.3 185.8 30.1 187 30.9 188.2 31.8 189.4 32.7 190.5 33.6 191.7 34.5 192.8 35.4 193.9 36.3 195 37.2 196 38.2 197.1 39.1 198.1 40.1 199.1 41.1 200.1 42.1 201 43.1 202 44.1 202.9 45.1 203.8 46.1 204.7 47.1 205.5 48.1 206.4 49.2 207.2 50.2 208 51.2 208.8 52.3 209.6 53.3 210.3 54.4 211.1 55.5 211.8 56.5 212.5 57.6 213.2 58.7 213.8 59.7 214.5 60.8 215.1 61.9 215.7 63 216.3 64.1 216.8 65.1 217.4 66.2 217.9 67.3 218.4 68.4 218.9 69.4 219.4 70.5 219.8 71.6 220.3 72.7 220.7 73.7 221.1 74.8 221.5 75.9 221.8 76.9 222.2 78 222.5 79.1 222.8 80.1 223.2 81.2 223.4 82.2 223.7 83.2 224 84.3 224.2 85.3 224.4 86.3 224.7 87.3 224.9 88.4 225 89.4 225.2 90.4 225.4 91.3 225.5 92.3 225.6 93.3 225.8 94.3 225.9 95.2 226 96.2 226 97.1 226.1 98.1 226.2 99 226.2 99.9 226.2 100.8 226.3 101.7 226.3 102.6 226.3 103.5 226.3 104.4 226.2 105.3 226.2 106.1 226.2 107 226.1 107.8 226.1 108.6 226 109.5 226 110.3 225.9 111.1 225.8 111.8 225.7 112.6 225.6 113.4 225.5 114.2 225.4 114.9 225.3 115.6 225.2 116.4 225 117.1 224.9 117.8 224.8 118.5 224.6 119.2 224.5 119.9 224.4 120.5 224.2 121.2 224.1 121.8 223.9 122.5 223.8 123.1 223.6 123.7 223.4 124.3 223.3 124.9 223.1 125.5 222.9 126.1 222.8 126.6 222.6 127.2 222.4 127.8 222.3 128.3 222.1 128.8 221.9 129.4 221.8 129.9 221.6 130.4 221.5 130.9 221.3 131.4 221.1 131.8 221 132.3 220.8 132.8 220.7 133.2 220.5 133.7 220.4 134.1 220.2 134.6 220.1 135 220 135.4 219.8 135.8 219.7 136.2 219.6 136.6 219.4 137 219.3 137.4 219.2 137.8 219.1 138.2 219 138.6 218.9 139 218.8 139.3 218.7 139.7 218.6 140 218.5 140.4 218.5 140.8 218.4 141.1 218.3 141.5 218.3 141.8 218.2 142.1 218.2 142.5 218.1 142.8 218.1 143.1 218.1 143.5 218 143.8 218 144.1 218 144.5 218 144.8"/></g></g></svg>